<?xml version="1.0" encoding="UTF-8"?>
<svg id="Layer_2" xmlns="http://www.w3.org/2000/svg" viewBox="0 0 154 129.33">
  <defs>
    <style>
      .cls-1 {
        fill: #c8a96e;
      }
    </style>
  </defs>
  <g id="logo">
    <g>
      <g>
        <path class="cls-1" d="M75.86,0c-11.62,0-22.78,4.21-31.53,11.86-.8-.24-1.62-.36-2.45-.36-4.86,0-8.82,4.04-8.82,9,0,1.41.33,2.79.94,4.03-4.09,7.24-6.25,15.47-6.25,23.84,0,8.88,2.41,17.53,6.97,25.07-.74,1.34-1.13,2.84-1.13,4.4,0,4.96,3.96,9,8.83,9,1.17,0,2.33-.25,3.4-.7,8.5,6.85,19.13,10.62,30.05,10.62,26.53,0,48.12-21.7,48.12-48.38S102.4,0,75.86,0ZM41.88,14.28c.77,0,1.52.15,2.23.44,2.32.95,3.82,3.22,3.82,5.79,0,1.08-.27,2.14-.79,3.08-1.08,1.94-3.09,3.15-5.26,3.15-.78,0-1.54-.15-2.24-.44-1.17-.48-2.18-1.33-2.88-2.47-.61-.99-.93-2.14-.93-3.32,0-3.43,2.71-6.23,6.05-6.23ZM35.79,27.02s.01.01.02.02c.03.03.07.06.1.09.21.2.44.39.67.57.08.07.17.13.26.19.2.14.4.27.6.39.09.05.17.11.26.15.29.16.58.31.89.43.03.01.05.02.08.03.28.11.57.21.87.29.1.03.2.05.3.07.24.06.48.1.72.14.1.02.2.03.3.04.34.04.68.07,1.02.07,2.62,0,5.08-1.2,6.74-3.21l33.21,30.51c-.06.28-.09.57-.09.87s.03.58.09.85l-32.2,14.16c-1.63-2.39-4.29-3.82-7.21-3.82-.32,0-.64.02-.96.06-.1.01-.19.03-.28.04-.23.03-.46.08-.68.13-.1.02-.19.04-.29.07-.27.07-.54.16-.8.25-.03.01-.07.02-.1.03-.3.11-.58.25-.86.39-.08.04-.15.09-.23.13-.21.11-.41.24-.6.37-.08.05-.16.11-.24.17-.21.15-.42.31-.62.49-.04.04-.09.07-.13.11-.01.01-.03.02-.04.03-3.95-6.89-6.03-14.72-6.03-22.74,0-7.47,1.82-14.81,5.27-21.36ZM36.36,77.85c0-1.3.39-2.55,1.12-3.61,1.13-1.64,2.98-2.61,4.93-2.61,2.3,0,4.37,1.31,5.4,3.43.43.87.65,1.81.65,2.79,0,.28-.02.57-.06.84-.22,1.66-1.09,3.16-2.4,4.16-.22.17-.45.32-.69.46h0c-.88.5-1.88.76-2.89.76-3.34,0-6.05-2.79-6.05-6.23ZM75.86,93.99c-9.98,0-19.71-3.33-27.59-9.42.03-.02.05-.05.07-.07.19-.18.37-.36.54-.55.02-.02.04-.04.06-.07.18-.21.35-.42.52-.64.04-.05.07-.1.11-.15.16-.23.31-.46.45-.7.01-.02.02-.04.03-.05.13-.23.25-.46.35-.7.02-.05.05-.11.07-.16.11-.25.21-.51.29-.77.02-.05.03-.1.04-.14.07-.24.14-.48.2-.73,0-.04.02-.08.03-.13.06-.27.1-.55.13-.82,0-.06.01-.12.02-.19.03-.29.05-.57.05-.86,0-.9-.15-1.8-.41-2.66l32.47-14.27c.85.72,1.97,1.16,3.2,1.16,2.62,0,4.75-1.97,4.75-4.4s-2.13-4.4-4.75-4.4c-1.22,0-2.32.43-3.16,1.13l-31.1-28.57c1.55-1.76,3.27-3.36,5.14-4.74l-1.65-2.23c-2.01,1.48-3.86,3.2-5.53,5.09l-.12-.11c.42-1.06.64-2.2.64-3.35,0-.33-.02-.66-.06-.98,0-.07-.01-.14-.02-.21-.04-.31-.09-.62-.16-.92-.01-.05-.03-.1-.04-.15-.07-.27-.15-.54-.24-.81-.02-.05-.03-.1-.05-.15-.11-.29-.23-.56-.36-.84-.03-.06-.06-.12-.1-.19-.14-.27-.29-.54-.46-.79,0,0-.01-.02-.02-.03-.17-.25-.35-.49-.55-.73-.05-.06-.09-.11-.14-.16-.2-.23-.4-.45-.62-.65-.04-.04-.08-.07-.13-.11-.2-.18-.41-.36-.63-.52-.03-.02-.06-.05-.09-.07,8.11-6.73,18.27-10.42,28.84-10.42,25,0,45.35,20.46,45.35,45.6s-20.34,45.61-45.35,45.61Z"/>
        <path class="cls-1" d="M79.7,15.22c2.61.32,5.17.98,7.62,1.96l1.03-2.58c-2.67-1.06-5.46-1.78-8.31-2.13l-.34,2.75Z"/>
        <path class="cls-1" d="M47.32,33.14l-2.49-1.23c-1.26,2.56-2.22,5.26-2.86,8.05l2.7.62c.59-2.58,1.48-5.09,2.65-7.45Z"/>
        <path class="cls-1" d="M44.7,56.3c-.6-2.56-.9-5.2-.91-7.86h-2.77c0,2.87.34,5.73.98,8.49l2.7-.63Z"/>
        <path class="cls-1" d="M49.58,72.12l2.12-1.78c-1.69-2.01-3.14-4.23-4.32-6.6l-2.48,1.24c1.28,2.56,2.85,4.97,4.68,7.15Z"/>
        <path class="cls-1" d="M63.19,14.68l1.04,2.57c2.44-.99,5-1.66,7.61-2l-.36-2.75c-2.84.37-5.63,1.11-8.29,2.18Z"/>
        <path class="cls-1" d="M100.06,70.3l2.13,1.78c1.83-2.19,3.4-4.6,4.67-7.16l-2.48-1.23c-1.18,2.37-2.63,4.6-4.32,6.62Z"/>
        <path class="cls-1" d="M87.96,79.66l1.36,2.42c2.48-1.4,4.81-3.1,6.9-5.05l-1.89-2.03c-1.94,1.8-4.08,3.37-6.38,4.66Z"/>
        <path class="cls-1" d="M106.8,31.72l-2.48,1.24c1.18,2.35,2.08,4.85,2.69,7.43l2.7-.64c-.66-2.78-1.64-5.49-2.91-8.03Z"/>
        <path class="cls-1" d="M55.83,77.97c2.32,1.7,4.84,3.1,7.49,4.16l1.03-2.57c-2.43-.97-4.75-2.26-6.88-3.82l-1.64,2.24Z"/>
        <path class="cls-1" d="M107.93,48.24v.14c0,2.66-.3,5.3-.89,7.86l2.7.63c.64-2.76.96-5.62.96-8.48v-.14h-2.77Z"/>
        <path class="cls-1" d="M71.96,81.53l-.35,2.75c1.4.18,2.83.27,4.25.27s2.9-.09,4.32-.27l-.35-2.75c-2.59.33-5.28.33-7.87,0Z"/>
        <path class="cls-1" d="M95.84,18.74l-1.63,2.24c2.12,1.54,4.06,3.35,5.77,5.38l2.12-1.79c-1.85-2.2-3.96-4.16-6.26-5.83Z"/>
      </g>
      <g>
        <path d="M0,105.7h4.6c1.57,0,2.71.44,3.44,1.31.72.88,1.08,2.22,1.08,4.04v.93c0,1.2-.16,2.17-.48,2.93-.32.75-.82,1.3-1.48,1.63v.07c1.51.62,2.27,2.24,2.27,4.86v2c0,1.8-.39,3.17-1.18,4.11s-1.93,1.41-3.45,1.41H0v-23.29ZM4.24,115.19c.61,0,1.07-.19,1.37-.57s.46-1.01.46-1.9v-1.3c0-.84-.12-1.45-.37-1.83-.25-.38-.64-.56-1.18-.56h-1.47v6.16h1.19ZM4.79,125.67c.54,0,.93-.17,1.19-.52.26-.34.39-.94.39-1.78v-2.03c0-1.07-.15-1.8-.46-2.21s-.81-.62-1.51-.62h-1.36v7.16h1.75Z"/>
        <path d="M12.85,127.8c-.79-1.02-1.19-2.46-1.19-4.33v-12.25c0-1.86.4-3.3,1.19-4.33.79-1.02,1.94-1.53,3.44-1.53s2.64.51,3.44,1.53c.79,1.02,1.19,2.46,1.19,4.33v12.25c0,1.86-.4,3.31-1.19,4.33-.79,1.02-1.94,1.53-3.44,1.53s-2.64-.51-3.44-1.53ZM17.87,123.71v-12.71c0-1.53-.53-2.3-1.58-2.3s-1.58.77-1.58,2.3v12.71c0,1.53.53,2.3,1.58,2.3s1.58-.77,1.58-2.3Z"/>
        <path d="M24.63,127.8c-.79-1.02-1.19-2.46-1.19-4.33v-12.25c0-1.86.4-3.3,1.19-4.33.79-1.02,1.94-1.53,3.44-1.53s2.64.51,3.44,1.53c.79,1.02,1.19,2.46,1.19,4.33v12.25c0,1.86-.4,3.31-1.19,4.33-.79,1.02-1.94,1.53-3.44,1.53s-2.64-.51-3.44-1.53ZM29.64,123.71v-12.71c0-1.53-.53-2.3-1.58-2.3s-1.58.77-1.58,2.3v12.71c0,1.53.53,2.3,1.58,2.3s1.58-.77,1.58-2.3Z"/>
        <path d="M35.43,105.7h3.05v9.82l3.88-9.82h3.05l-3.63,8.55,3.68,14.74h-3.19l-2.58-10.38-1.22,2.96v7.42h-3.05v-23.29Z"/>
      </g>
      <g>
        <path d="M58.55,127.42c-.77-1-1.15-2.41-1.15-4.23v-12.51c0-1.82.38-3.23,1.15-4.23.77-1,1.88-1.5,3.34-1.5s2.57.5,3.34,1.5c.77,1,1.15,2.41,1.15,4.23v2.46h-2.88v-2.7c0-1.44-.51-2.16-1.52-2.16s-1.52.72-1.52,2.16v13.01c0,1.42.51,2.13,1.52,2.13s1.52-.71,1.52-2.13v-3.56h2.88v3.29c0,1.82-.38,3.23-1.15,4.23-.77,1-1.88,1.5-3.34,1.5s-2.57-.5-3.34-1.5Z"/>
        <path d="M69.95,127.4c-.78-1.01-1.16-2.46-1.16-4.34v-17.77h3.05v18.04c0,.8.13,1.38.4,1.73.27.36.65.53,1.15.53s.88-.18,1.15-.53c.27-.35.4-.93.4-1.73v-18.04h2.94v17.77c0,1.89-.39,3.33-1.16,4.34-.78,1.01-1.9,1.51-3.38,1.51s-2.6-.5-3.38-1.51Z"/>
        <path d="M83.11,108.61h-3.19v-3.33h9.42v3.33h-3.19v19.97h-3.05v-19.97Z"/>
      </g>
      <g>
        <path d="M102.58,127.82c-.76-1.01-1.14-2.46-1.14-4.34v-1.33h2.88v1.6c0,1.51.53,2.26,1.58,2.26.52,0,.91-.18,1.18-.55.27-.37.4-.96.4-1.78,0-.98-.18-1.83-.55-2.58-.37-.74-1.05-1.64-2.05-2.68-1.26-1.33-2.13-2.53-2.63-3.61s-.75-2.29-.75-3.64c0-1.84.39-3.27,1.16-4.28.78-1.01,1.9-1.51,3.38-1.51s2.56.5,3.31,1.51,1.12,2.46,1.12,4.34v.96h-2.88v-1.2c0-.8-.13-1.38-.39-1.75s-.64-.55-1.14-.55c-1.02,0-1.52.74-1.52,2.23,0,.84.19,1.63.57,2.36.38.73,1.07,1.62,2.06,2.66,1.27,1.33,2.15,2.54,2.63,3.63.48,1.09.72,2.36.72,3.83,0,1.91-.39,3.37-1.18,4.39-.79,1.02-1.93,1.53-3.42,1.53s-2.59-.5-3.35-1.51Z"/>
        <path d="M115.35,109.03h-3.19v-3.33h9.42v3.33h-3.19v19.97h-3.05v-19.97Z"/>
        <path d="M126.65,119.08l-3.69-13.38h3.24l2.08,8.55h.06l2.08-8.55h2.96l-3.69,13.38v9.92h-3.05v-9.92Z"/>
        <path d="M135.46,105.7h3.05v19.97h5.01v3.33h-8.06v-23.29Z"/>
        <path d="M145.68,105.7h8.31v3.33h-5.26v6.16h4.18v3.33h-4.18v7.16h5.26v3.33h-8.31v-23.29Z"/>
      </g>
      <circle cx="94.23" cy="117.78" r="3.47"/>
      <circle cx="49.93" cy="117.86" r="3.47"/>
    </g>
  </g>
</svg>